<svg width="406" height="276" viewBox="0 0 406 276" fill="none" xmlns="http://www.w3.org/2000/svg">
<path d="M187.204 137.417C191.329 133.278 199.644 126.243 199.905 131.209C200.23 137.417 192.089 153.427 199.905 146.239C207.721 139.051 217.165 126.308 217.816 131.209C218.467 136.11 219.444 137.417 228.563 128.595" stroke="black" stroke-width="5" stroke-linecap="round"/>
<path d="M28.9546 208.195C30.4758 210.264 35.3438 214.292 42.6458 213.854" stroke="black" stroke-width="5" stroke-linecap="round"/>
<path d="M120.594 217.322C113.421 221.24 92.5148 224.955 65.8602 208.842C65.4288 208.581 64.8661 208.669 64.5386 209.053C59.2534 215.236 44.6642 227.64 25.6687 229.188C20.0096 229.649 15.9937 226.815 22.5653 224.442C26.2164 223.123 28.9547 222.251 30.2324 220.973" stroke="black" stroke-width="5" stroke-linecap="round"/>
<path d="M19.6446 226.085C15.9936 227.788 11.2473 228.932 10.5171 225.719C9.60439 221.703 16.1762 222.434 18.7318 220.426" stroke="black" stroke-width="5" stroke-linecap="round"/>
<path d="M9.96954 225.902C3.76292 227.728 0.882489 222.231 6.31861 219.513C11.43 216.957 15.8111 217.87 19.097 214.036" stroke="black" stroke-width="5" stroke-linecap="round"/>
<path d="M4.49301 220.79C3.09347 219.573 1.42619 216.446 5.95341 213.671C11.6124 210.202 38.0821 198.519 34.7962 189.209C33.8298 186.471 28.5895 186.654 24.2083 180.995C20.9542 176.791 24.2083 171.867 28.2244 174.606C29.2589 175.397 35.6359 179.535 38.9948 178.074C43.165 176.261 56.8794 174.628 66.7237 186.947C66.8536 187.11 67.0256 187.232 67.2255 187.29C75.4015 189.661 93.2047 193.057 101.427 188.297" stroke="black" stroke-width="5" stroke-linecap="round"/>
<path d="M39.3599 195.051C41.6113 197.181 47.9397 197.972 51.9558 194.138" stroke="black" stroke-width="5" stroke-linecap="round"/>
<path d="M377.045 206.024C375.524 208.093 370.656 212.121 363.354 211.683" stroke="black" stroke-width="5" stroke-linecap="round"/>
<path d="M285.406 215.151C292.579 219.069 313.485 222.784 340.14 206.671C340.571 206.41 341.134 206.498 341.461 206.881C346.747 213.064 361.336 225.469 380.331 227.017C385.99 227.478 390.006 224.644 383.435 222.271C379.784 220.952 377.045 220.08 375.768 218.802" stroke="black" stroke-width="5" stroke-linecap="round"/>
<path d="M386.355 223.914C390.006 225.617 394.753 226.761 395.483 223.548C396.396 219.532 389.824 220.263 387.268 218.255" stroke="black" stroke-width="5" stroke-linecap="round"/>
<path d="M396.031 223.731C402.237 225.557 405.118 220.06 399.682 217.342C394.57 214.786 390.189 215.699 386.903 211.865" stroke="black" stroke-width="5" stroke-linecap="round"/>
<path d="M401.507 218.619C402.907 217.402 404.574 214.275 400.047 211.5C394.388 208.031 367.918 196.348 371.204 187.038C372.17 184.3 377.41 184.483 381.792 178.824C385.046 174.62 381.792 169.696 377.776 172.435C376.741 173.226 370.364 177.363 367.005 175.903C362.835 174.09 349.121 172.457 339.276 184.776C339.146 184.939 338.974 185.061 338.775 185.119C330.599 187.489 312.795 190.886 304.573 186.126" stroke="black" stroke-width="5" stroke-linecap="round"/>
<path d="M366.64 192.88C364.389 195.01 358.06 195.801 354.044 191.967" stroke="black" stroke-width="5" stroke-linecap="round"/>
<path d="M183.468 62.4438C184.847 78.1586 191.9 105.874 209.025 106.948C227.065 108.08 234.582 71.4955 234.582 62.0667" stroke="black" stroke-width="5" stroke-linecap="round"/>
<path d="M186.754 61.7016L181.643 60.9714" stroke="black" stroke-width="5" stroke-linecap="round"/>
<path d="M236.519 60.9714C242.056 62.3637 246.41 68.4136 233.122 79.9566" stroke="black" stroke-width="5" stroke-linecap="round"/>
<path d="M181.072 60.9714C176.246 61.6043 171.166 68.9452 186.024 79.9566" stroke="black" stroke-width="5" stroke-linecap="round"/>
<ellipse cx="196.247" cy="64.0748" rx="3.28589" ry="3.10334" fill="black"/>
<circle cx="221.256" cy="64.0748" r="3.10334" fill="black"/>
<circle cx="196.612" cy="63.8921" r="8.81805" stroke="black" stroke-width="5"/>
<path d="M229.526 63.8921C229.526 68.8007 225.622 72.7102 220.891 72.7102C216.16 72.7102 212.255 68.8007 212.255 63.8921C212.255 58.9836 216.16 55.0741 220.891 55.0741C225.622 55.0741 229.526 58.9836 229.526 63.8921Z" stroke="black" stroke-width="5"/>
<path d="M206.47 62.7969H210.851" stroke="black" stroke-width="5" stroke-linecap="round"/>
<path d="M204.698 69.7338C203.748 74.9972 203.643 83.7361 213.041 78.9239" stroke="black" stroke-width="5" stroke-linecap="round"/>
<path d="M202.454 90.1793C204.462 89.0772 209.683 87.5343 214.502 90.1793" stroke="black" stroke-width="5" stroke-linecap="round"/>
<path d="M230.201 60.9714H236.408" stroke="black" stroke-width="5" stroke-linecap="round"/>
<path d="M180.412 30.495C161.255 39.5155 170.185 55.3014 177.044 62.0667C178.242 61.1647 182.033 60.9392 183.779 60.9392C180.486 36.8845 192.884 30.4948 198.371 28.9914C213.712 26.3604 231.297 30.495 234.29 42.5223C237.866 56.8901 237.978 61.6909 240.758 62.0667C251.32 53.6476 249.762 37.511 247.663 30.495C250.402 22.6582 244.286 15.5861 240.758 11.3265C237.23 7.06679 227.555 -0.701055 210.344 0.0508566C176.296 3.43354 178.541 24.4814 180.412 30.495Z" fill="black"/>
<path d="M190.04 48.9231C191.592 48.6476 196.247 48.2619 202.454 48.9231" stroke="black" stroke-width="5" stroke-linecap="round"/>
<path d="M215.597 49.6533C217.058 49.1023 221.439 48.3308 227.28 49.6533" stroke="black" stroke-width="5" stroke-linecap="round"/>
<path d="M192.154 105.237C156.009 102.681 147.1 97.5338 120.959 160.185" stroke="black" stroke-width="5" stroke-linecap="round"/>
<path d="M227.173 103.919C258.206 109.395 273.175 90.4099 293.621 153.025" stroke="black" stroke-width="5" stroke-linecap="round"/>
<path d="M142.683 199.797C139.02 217.297 127.723 219.245 121.404 217.873C120.731 217.726 120.496 216.919 120.891 216.354C133.369 198.502 113.409 185.345 102.41 188.175C101.863 188.315 101.267 188.032 101.169 187.477C99.9659 180.694 111.264 179.254 112.38 169.494C112.964 164.383 113.658 161.768 116.578 161.645C129.539 161.097 147.611 176.249 142.683 199.797Z" stroke="black" stroke-width="5" stroke-linecap="round"/>
<path d="M296.176 155.397C299.188 169.393 308.734 176.34 305.623 185.582C305.459 186.069 304.911 186.31 304.415 186.175C282.761 180.291 277.333 204.044 285.035 213.389C285.631 214.112 285.215 215.329 284.286 215.22C269.408 213.48 258.416 188.764 261.857 179.128C271.897 151.016 295.116 150.468 296.176 155.397Z" stroke="black" stroke-width="5" stroke-linecap="round"/>
<path d="M266.421 201.947C266.299 226.105 266.749 251.272 270.254 271.133" stroke="black" stroke-width="5" stroke-linecap="round"/>
<path d="M143.413 197.607C143.656 221.46 142.938 248.83 138.849 272.635" stroke="black" stroke-width="5" stroke-linecap="round"/>
<path d="M223.857 112.827C225.481 108.267 223.996 105.198 222.554 104.614C213.867 112.331 200.692 109.466 195.811 104.789C194.072 106.333 195.084 110.898 195.811 112.301C205.219 122.403 218.609 116.744 223.857 112.827Z" fill="black"/>
</svg>
