<svg width="40" height="40" viewBox="0 0 40 40" fill="none" xmlns="http://www.w3.org/2000/svg">
<path fill-rule="evenodd" clip-rule="evenodd" d="M32.5197 24.9298L29.4789 27.6521C29.1078 27.981 28.7457 28.3265 28.3714 28.649C27.7081 29.2158 27.0497 29.7796 26.3527 30.3068C26.2646 30.3723 26.1757 30.437 26.0794 30.4995C26.0431 30.5306 25.9638 30.5638 25.8893 30.5969C25.8531 30.6178 25.8152 30.625 25.7763 30.6276L25.7476 30.631L25.7404 30.6318L25.7387 30.6323C25.7384 30.6548 25.7374 30.6382 25.7371 30.6433L25.7335 30.6425L25.7192 30.6399L25.6623 30.6306L25.4621 30.5501C25.4092 30.5242 25.3579 30.4901 25.3063 30.4599C25.2015 30.4021 25.1084 30.3131 25.0154 30.231C24.6512 29.8732 24.4148 29.3732 24.2616 28.866C23.9912 27.9572 23.9196 27.0028 23.9183 26.0753C23.9196 25.4779 23.9562 24.8801 24.0395 24.2886C24.1326 23.6998 24.2462 23.1083 24.5313 22.5679C24.6238 22.3995 24.7136 22.3663 24.742 22.4173C24.7779 22.4722 24.7711 22.5926 24.7698 22.7598C24.7564 23.087 24.7394 23.6172 24.6434 24.2359C24.4781 25.3358 24.4441 26.5016 24.5836 27.5909C24.6554 28.1321 24.7769 28.6614 24.9837 29.0882C25.0869 29.3005 25.2074 29.4911 25.3524 29.6341C25.4272 29.7 25.501 29.7698 25.5853 29.817C25.6218 29.8464 25.6754 29.8702 25.7058 29.8834C25.7129 29.8894 25.7263 29.9025 25.7407 29.8991C25.7414 29.9128 25.9004 29.8115 26.0075 29.7315C26.1241 29.6494 26.242 29.5553 26.3593 29.4634C26.5941 29.2741 26.8283 29.0767 27.0614 28.8729C27.5255 28.4589 27.9919 28.0427 28.4543 27.63C29.4727 26.7216 30.489 25.8042 31.4991 24.8767L33.3574 23.1517L34.7526 21.8238L35.4372 21.146L35.6008 20.9736C35.6383 20.9281 35.6717 20.9077 35.6886 20.8545C35.7024 20.8017 35.7017 20.7549 35.7024 20.689C35.7014 20.606 35.6971 20.5188 35.6909 20.4299C35.592 19.3078 35.3947 18.1629 35.4104 16.9698C35.4127 16.7068 35.4195 16.4464 35.4512 16.1788C35.508 15.6818 35.6083 15.3601 35.7138 15.1614C35.8154 14.9598 35.9075 14.8679 36.0064 14.8202C36.0515 14.7981 36.1001 14.7645 36.1348 14.7611C36.2546 14.7551 36.1566 15.1189 36.1067 15.752C35.9969 16.6838 36.0564 17.6889 36.1664 18.7168C36.219 19.2359 36.2827 19.7495 36.3274 20.3248L36.3399 20.5507C36.3412 20.6341 36.3464 20.6992 36.3379 20.8502C36.3288 21.1179 36.236 21.3676 36.077 21.54L35.9228 21.7063L35.7967 21.837L35.5459 22.0897C34.5537 23.0717 33.5407 24.0053 32.5302 24.9452L32.5197 24.9298Z" fill="#231F20"/>
<path fill-rule="evenodd" clip-rule="evenodd" d="M3.71271 30.8019C3.38318 30.7589 3.05398 30.7117 2.71138 30.6292L2.45011 30.5577C2.35671 30.5245 2.25808 30.4815 2.16337 30.4411C2.11144 30.416 2.03534 30.3586 1.97558 30.3118L1.88283 30.2339L1.83482 30.1718L1.64507 29.9241C1.14049 29.2676 0.762948 28.4243 0.58561 27.521C0.404679 26.6181 0.405332 25.6786 0.537601 24.7919C0.670523 23.9035 0.922324 23.0555 1.28517 22.2857C1.55754 21.7296 1.87695 21.2003 2.30968 20.7765C2.3665 20.7242 2.40863 20.6753 2.49322 20.6072C2.58532 20.5404 2.69407 20.5085 2.74796 20.491C2.87925 20.4506 3.00074 20.4229 3.12419 20.3983C3.36881 20.3498 3.61506 20.3174 3.86196 20.303C7.20657 20.1536 10.5267 20.2323 13.8553 20.3459C15.3311 20.4 16.8155 20.4498 18.2803 20.5293C19.2215 20.5812 20.165 20.637 21.1085 20.7391C21.5801 20.7914 22.0517 20.8523 22.523 20.9412C22.9946 21.0335 23.4632 21.1305 23.9378 21.3446C24.0867 21.4177 24.1922 21.4948 24.2559 21.5837C24.3199 21.6709 24.3307 21.742 24.3058 21.7543C24.251 21.7756 24.1017 21.713 23.8558 21.7096C23.3646 21.6781 22.4645 21.6939 21.3946 21.5803C19.4975 21.3829 17.5817 21.3037 15.6649 21.2284C13.7462 21.1735 11.8232 21.1178 9.89081 21.0625C8.73501 21.0301 7.55569 21.0352 6.37082 21.0671C5.77839 21.0829 5.18432 21.105 4.59287 21.1365C3.99945 21.1684 3.41486 21.1931 2.88644 21.3526C2.80969 21.3803 2.83679 21.3603 2.76886 21.4254L2.59708 21.5884C2.49159 21.719 2.37957 21.8428 2.28257 21.9909C2.0876 22.2853 1.90634 22.607 1.76199 22.9589C1.46381 23.6554 1.25969 24.4285 1.17249 25.2178C1.08562 26.0062 1.12024 26.8159 1.30933 27.5605C1.4981 28.3034 1.8358 28.98 2.29596 29.5033C2.33254 29.5608 2.35246 29.5548 2.37369 29.5731C2.38545 29.5803 2.39165 29.5897 2.40668 29.5991L2.46775 29.6229C2.54646 29.6578 2.62974 29.6901 2.72608 29.711C2.90636 29.7663 3.10394 29.7944 3.29565 29.8314C3.68625 29.8892 4.0811 29.9348 4.47889 29.9663C5.27316 30.0314 6.07232 30.0675 6.87116 30.0931C9.29282 30.1624 11.7321 30.1782 14.1414 30.1688C16.0147 30.1611 17.8514 30.1016 19.7088 30.1199C20.1176 30.1258 20.5184 30.1245 20.9318 30.1437C22.4632 30.2186 22.9629 30.3832 23.2611 30.6887C23.3287 30.7602 23.4178 30.8368 23.4515 30.9006C23.557 31.1223 22.9613 31.0942 21.8554 31.0679C20.2166 31.0176 18.519 31.0445 16.7982 31.0568C15.0744 31.067 13.3269 31.0768 11.5757 31.0874C10.2736 31.0887 8.96754 31.081 7.6589 31.0479C6.34862 31.0091 5.04062 30.97 3.71467 30.8253L3.71271 30.8019Z" fill="#231F20"/>
<path fill-rule="evenodd" clip-rule="evenodd" d="M10.4706 14.3676L8.69007 15.887C8.47289 16.0708 8.26452 16.2725 8.0444 16.4508C7.26581 17.0682 6.48592 17.6864 5.70798 18.3038C5.3631 18.585 5.01822 18.8667 4.67628 19.1454C4.23996 19.5096 3.79089 19.8713 3.28305 20.0764C3.1253 20.1415 3.10277 19.9943 3.17625 19.7819C3.25137 19.5722 3.41074 19.2837 3.65503 19.082C4.54042 18.4042 5.42254 17.6787 6.34156 16.9886C6.89285 16.5746 7.43237 16.0755 7.97059 15.616L9.75443 14.0859L10.8479 13.1303C11.4001 12.6456 11.9543 12.1589 12.5024 11.6776C12.925 11.296 13.3247 10.8926 13.7408 10.508C13.8322 10.4229 13.924 10.3441 14.0207 10.2671C14.3809 9.98631 14.5217 9.9527 14.666 10.0378C14.699 10.0578 14.7369 10.0723 14.762 10.0965C14.845 10.1748 14.7477 10.3939 14.5141 10.6539C14.1725 11.0496 13.7996 11.4053 13.4158 11.7568C13.0288 12.1065 12.6385 12.4597 12.2466 12.8137C11.6591 13.3353 11.069 13.8595 10.4798 14.3825L10.4706 14.3676Z" fill="#231F20"/>
<path fill-rule="evenodd" clip-rule="evenodd" d="M34.7342 13.1232C34.2028 12.5019 33.4739 12.1084 32.7136 11.8633C31.9507 11.6114 31.1466 11.4952 30.3399 11.4306C29.7498 11.3884 29.1557 11.3948 28.561 11.3948C27.511 11.3944 26.4561 11.448 25.3983 11.5114C24.3395 11.5697 23.28 11.6569 22.2042 11.6335C21.246 11.6097 20.2956 11.4535 19.3707 11.2191C18.1865 10.9123 16.9971 10.5141 15.9148 9.79583C15.5777 9.57287 15.6473 9.54096 15.9664 9.60989C16.1486 9.65031 16.3707 9.70009 16.6186 9.75541C16.8883 9.80987 17.1966 9.89241 17.5255 10.0047C18.6918 10.4004 19.8874 10.6434 21.0791 10.7804C22.2624 10.9408 23.4698 10.8366 24.7056 10.7796C26.1788 10.7047 27.7161 10.5051 29.2432 10.5085C30.0819 10.5081 30.9248 10.5711 31.7661 10.7196C32.6045 10.8761 33.4497 11.1238 34.2404 11.6182C34.3609 11.6969 34.4785 11.7858 34.5973 11.8697C34.7113 11.9671 34.826 12.0637 34.9373 12.1671C35.0422 12.2832 35.1545 12.3866 35.2522 12.5143L35.3981 12.7066C35.4507 12.7628 35.5095 12.8781 35.5565 12.9747L35.7078 13.2721C35.7675 13.3665 35.7394 13.5006 35.7064 13.5997C35.6388 13.8073 35.4837 13.9933 35.356 14.1409C35.1486 14.3698 34.9377 14.5673 34.7244 14.7604C33.4282 15.9071 32.0738 16.8981 30.758 17.935C29.7338 18.7358 28.7475 19.5604 27.7576 20.3888C27.5414 20.5739 27.3297 20.7552 27.1122 20.9415C26.3029 21.6291 26.0381 21.7759 25.7739 21.7653C25.7118 21.7627 25.6419 21.7789 25.591 21.7768C25.4995 21.7844 25.5064 21.6142 25.6227 21.3977C25.736 21.1836 25.943 20.9152 26.2308 20.6279C27.963 18.9881 29.8948 17.5589 31.8017 16.0578C32.5088 15.5025 33.2182 14.9464 33.9027 14.3643C34.241 14.0737 34.5849 13.7725 34.8704 13.4631L34.9138 13.4167C34.9171 13.4133 34.922 13.4065 34.9184 13.4014C34.9135 13.3933 34.9197 13.398 34.9047 13.3785L34.7241 13.1419L34.7342 13.1232Z" fill="#231F20"/>
<path fill-rule="evenodd" clip-rule="evenodd" d="M6.74101 38.9611C8.37331 38.9262 10.0089 38.8636 11.6441 38.7947L13.4332 38.6947C15.5367 38.6105 17.6416 38.5445 19.7478 38.4994C20.6828 38.4718 21.6227 38.4437 22.5506 38.416C23.1473 38.396 23.7462 38.3837 24.3465 38.4173C24.9468 38.4526 25.5477 38.4939 26.1552 38.6913C26.549 38.9032 26.4236 38.9628 26.1101 39.0185C25.7864 39.0977 25.2227 39.2228 24.5454 39.2376C22.1247 39.2802 19.7079 39.3232 17.2631 39.3661C15.7977 39.3764 14.2751 39.4989 12.7767 39.5683C11.1294 39.6427 9.48012 39.7116 7.82986 39.764C6.8145 39.7959 5.79782 39.8193 4.78049 39.8227C4.00582 39.8121 3.24258 39.8308 2.44538 39.6955L2.29384 39.6648L2.12564 39.6023C2.01264 39.5597 1.93851 39.4785 1.84347 39.4181C1.75594 39.3479 1.65797 39.2981 1.57991 39.21L1.34117 38.9568C1.17755 38.7934 1.06129 38.5709 0.920527 38.3799C0.813406 38.1578 0.686035 37.9484 0.598509 37.714C0.300986 36.9979 0.131159 36.2179 0.0540839 35.4312C-0.0246243 34.6441 -0.0184191 33.8437 0.0792313 33.051C0.131486 32.7038 0.176229 32.3605 0.270613 32.0201C0.437827 31.3882 0.626923 31.0061 0.783359 30.7678C0.929998 30.5215 1.0835 30.4441 1.21087 30.4049C1.27194 30.3892 1.34117 30.3598 1.38755 30.3675C1.46593 30.3807 1.4643 30.513 1.40257 30.7223C1.3304 30.9342 1.22785 31.2355 1.09721 31.6197C0.740249 32.7928 0.592631 34.136 0.729798 35.4367C0.844105 36.7281 1.28925 38.0169 2.07894 38.6441L2.30266 38.8062C2.33923 38.8326 2.3585 38.8232 2.38626 38.8377L2.42545 38.8539L2.49208 38.8649C2.66223 38.9028 2.86341 38.9177 3.05806 38.9377C3.4578 38.9624 3.86408 38.9755 4.2733 38.9781C5.09108 38.9849 5.91539 38.967 6.7384 38.9402L6.74101 38.9611Z" fill="#231F20"/>
<path fill-rule="evenodd" clip-rule="evenodd" d="M26.5555 35.8912C26.4931 35.5483 26.4458 35.1993 26.4089 34.8496C26.3978 34.7211 26.3674 34.5977 26.3605 34.4692C26.3338 34.0144 26.3504 33.5595 26.3765 33.1132C26.3974 32.9153 26.3991 32.7166 26.4167 32.5217C26.4285 32.2703 26.4435 32.015 26.5265 31.7801C26.5741 31.6346 26.9157 31.9239 26.9141 32.1886C26.9017 32.6677 26.9017 33.1285 26.8452 33.611C26.8207 33.9008 26.872 34.1969 26.9066 34.4875C26.9432 34.8087 26.9905 35.1308 27.0536 35.4504C27.0928 35.647 27.1336 35.844 27.1845 36.0376C27.2593 36.3312 27.3377 36.6286 27.4419 36.9085C27.5222 37.1268 27.6434 37.3162 27.7348 37.5264C27.7561 37.5723 27.7812 37.6136 27.7995 37.6621C27.8704 37.8391 27.8318 37.931 27.7162 38.0455C27.6888 38.0718 27.663 38.1008 27.6352 38.1233C27.5425 38.1982 27.4285 38.1765 27.3331 38.0735C27.0794 37.7527 26.9226 37.3413 26.7926 36.9034C26.6956 36.5779 26.614 36.2409 26.5418 35.8976L26.5555 35.8912Z" fill="#231F20"/>
<path fill-rule="evenodd" clip-rule="evenodd" d="M35.0396 31.1179C34.5279 31.6813 33.9968 32.2093 33.4779 32.7539C33.2878 32.9514 33.1105 33.1688 32.9197 33.3641C32.2463 34.0538 31.5677 34.7333 30.9089 35.4409C30.6157 35.7528 30.3318 36.0838 30.0631 36.4216C29.89 36.6386 29.7241 36.8646 29.5588 37.0858C29.402 37.2952 29.2472 37.5011 29.0856 37.7168C29.0363 37.7832 28.8736 37.7845 28.8158 37.5084C28.7662 37.2497 28.8282 36.8501 29.0235 36.5697C29.7192 35.5839 30.469 34.7456 31.291 33.9883C31.7796 33.533 32.2339 32.9794 32.7078 32.4778L34.2735 30.832C34.5948 30.4959 34.9162 30.1593 35.2265 29.8108C35.4587 29.5483 35.7013 29.2794 35.8966 29.0045C35.9348 28.9488 35.9613 28.9135 35.9659 28.8526L35.9655 28.7556L35.9636 28.6075C35.9593 28.4101 35.9466 28.2135 35.9296 28.0169C35.8738 27.4085 35.7467 26.7932 35.718 26.1486C35.7124 26.0074 35.699 25.8691 35.7016 25.7265C35.7274 25.1985 35.7905 25.0377 35.9133 24.939C35.942 24.9164 35.9701 24.8862 35.9969 24.8743C36.0877 24.8347 36.1504 25.0504 36.1964 25.4164C36.2637 25.9614 36.3166 26.489 36.4005 27.0422C36.4394 27.32 36.4822 27.6093 36.5145 27.9127C36.5309 28.0646 36.5439 28.2186 36.5547 28.3744L36.5671 28.6088C36.5717 28.696 36.5714 28.7326 36.5753 28.9126C36.5825 29.1309 36.4698 29.3202 36.3904 29.49C36.3156 29.607 36.2568 29.6891 36.1925 29.7742C36.0664 29.9436 35.9407 30.0967 35.8143 30.2495C35.5612 30.5524 35.3058 30.8431 35.0511 31.1337L35.0396 31.1179Z" fill="#231F20"/>
<path fill-rule="evenodd" clip-rule="evenodd" d="M7.58112 25.7844C6.30807 27.7115 7.00273 33.9653 7.00273 33.9653C5.67155 34.4027 4.58629 32.5276 4.58629 32.5276C3.89163 29.0786 4.97722 25.7844 4.97722 25.7844H7.58112Z" fill="#231F20"/>
<path fill-rule="evenodd" clip-rule="evenodd" d="M36.1226 27.1527C45.5705 28.6666 35.4969 35.2132 29.7629 36.3944L36.151 29.4116L36.1226 27.1527Z" fill="#231F20"/>
<path fill-rule="evenodd" clip-rule="evenodd" d="M1.38545 26.3232C1.34692 25.876 1.33973 25.4254 1.4008 24.988C1.42301 24.8293 1.42497 24.6659 1.46743 24.5131C1.58467 23.9655 1.78879 23.4609 2.05072 23.0261C2.16764 22.8346 2.27672 22.6342 2.40638 22.4589C2.56085 22.2227 2.7408 21.9981 2.96452 21.8679C3.03375 21.8257 3.07099 21.9355 3.07229 22.0789C3.07425 22.2266 3.04061 22.3887 2.95668 22.5001C2.64479 22.8831 2.38547 23.3311 2.15 23.8158C1.99748 24.103 1.93902 24.4604 1.87469 24.7986C1.8257 25.1765 1.78389 25.5662 1.82309 25.9543C1.82766 26.196 1.88252 26.4283 1.92074 26.6653L2.06574 27.1856C2.12681 27.3524 2.19736 27.5145 2.26757 27.6741C2.39462 27.9094 2.54224 28.1196 2.699 28.3153C2.7346 28.3579 2.77281 28.3953 2.80645 28.44C2.93153 28.6059 2.9459 28.6889 2.88385 28.8412C2.86948 28.8761 2.85772 28.9131 2.84107 28.9446C2.78522 29.051 2.67712 29.0501 2.56085 28.9382C2.38711 28.7744 2.21891 28.5872 2.08207 28.3532C2.01218 28.2383 1.93576 28.1285 1.87567 28.0009L1.7029 27.6103C1.53863 27.2146 1.44228 26.7712 1.37402 26.3266L1.38545 26.3232Z" fill="#231F20"/>
<path fill-rule="evenodd" clip-rule="evenodd" d="M1.72572 34.5583C1.72572 34.7297 1.73062 34.9021 1.75153 35.0731C1.76165 35.2467 1.793 35.4156 1.82305 35.5854C1.84068 35.7118 1.88967 35.8237 1.91776 35.9449C2.02521 36.3679 2.16597 36.79 2.3776 37.1487C2.46186 37.3197 2.5889 37.4405 2.7006 37.572C2.7829 37.6405 2.86487 37.7069 2.9377 37.7924C3.01771 37.8626 3.09871 37.9303 3.17154 38.029C3.2104 38.1086 3.18395 38.1711 3.09642 38.2451C3.01053 38.3175 2.86552 38.369 2.73489 38.3098C2.51052 38.1945 2.33188 37.9784 2.17185 37.7567C2.01606 37.5286 1.88053 37.2767 1.7868 37.0006C1.66727 36.6776 1.53369 36.3543 1.44682 36.0109C1.39424 35.825 1.3717 35.6271 1.33414 35.4365C1.31161 35.2412 1.28842 35.0463 1.27699 34.8506C1.26817 34.6089 1.26229 34.3681 1.27862 34.1268C1.28973 33.7609 1.3606 33.4039 1.42461 33.0499C1.48764 32.7793 1.53532 32.501 1.6333 32.2351C1.65257 32.1755 1.66629 32.1126 1.69698 32.0602C1.81064 31.8671 1.87628 31.836 1.99288 31.9079C2.01966 31.9241 2.04774 31.9381 2.07158 31.9585C2.15192 32.0279 2.17185 32.1674 2.13331 32.3079C2.01508 32.7155 1.86649 33.0942 1.79823 33.5431C1.75414 33.872 1.72115 34.2124 1.73716 34.557L1.72572 34.5583Z" fill="#231F20"/>
<path fill-rule="evenodd" clip-rule="evenodd" d="M10.0896 26.0539L8.57359 26.0449C8.38874 26.0449 8.20487 26.0645 8.02035 26.062C7.3688 26.0466 6.7166 26.0156 6.0644 25.9849C5.77341 25.9756 5.48307 25.9658 5.19469 25.9564C4.82368 25.9454 4.44712 25.919 4.07481 25.699C3.95659 25.6097 4.01766 25.559 4.12674 25.522C4.23615 25.4829 4.40597 25.419 4.61042 25.4156C5.33153 25.4224 6.08007 25.4284 6.83221 25.4603C7.28323 25.4871 7.75189 25.4224 8.21369 25.4122L9.73984 25.3769L10.6804 25.3582C11.1559 25.3497 11.6331 25.3412 12.105 25.3327C12.4724 25.3229 12.833 25.2791 13.2014 25.2723C13.282 25.2684 13.3624 25.2718 13.444 25.2778C13.7481 25.3105 13.8454 25.3812 13.8931 25.5475C13.9042 25.5854 13.9195 25.6237 13.9241 25.6599C13.9375 25.7841 13.8114 25.8594 13.5988 25.8918C12.9659 25.9956 12.2941 26.0322 11.6141 26.056C11.1076 26.0611 10.5988 26.0662 10.0906 26.0713L10.0896 26.0539Z" fill="#231F20"/>
<path fill-rule="evenodd" clip-rule="evenodd" d="M14.7502 35.5871L13.3662 35.5701C13.1976 35.5696 13.0294 35.5884 12.8609 35.5858C12.2662 35.5645 11.6699 35.5428 11.0758 35.5216C10.8119 35.5143 10.5464 35.5177 10.2838 35.5207C9.94676 35.5369 9.60646 35.5079 9.27072 35.4241C9.16621 35.3973 9.18548 35.3199 9.27791 35.2352C9.37066 35.1518 9.53428 35.0518 9.72501 35.0271C10.064 34.9731 10.4027 34.9867 10.7436 34.9757C11.0846 34.9689 11.4272 34.9714 11.7721 34.9876C12.1849 35.011 12.613 34.9459 13.0353 34.9361L14.4299 34.908L15.2894 34.8952C15.7241 34.8901 16.1601 34.8855 16.5916 34.8803C16.9276 34.8735 17.2575 34.8318 17.5942 34.8259C17.669 34.8246 17.7418 34.825 17.8166 34.8318C18.0949 34.8642 18.1837 34.9365 18.2252 35.0978C18.2346 35.1352 18.2484 35.1727 18.2519 35.2088C18.2644 35.3297 18.1445 35.4165 17.9521 35.4445C17.3751 35.5484 16.762 35.5816 16.1415 35.6003C15.6794 35.602 15.2147 35.6033 14.7512 35.6045L14.7502 35.5871Z" fill="#231F20"/>
<path fill-rule="evenodd" clip-rule="evenodd" d="M23.2436 16.9986C22.704 16.9556 22.1661 16.9127 21.6318 16.9012C21.0776 16.8871 20.5342 16.8165 19.995 16.7467C19.4564 16.6761 18.9215 16.6063 18.3891 16.5782C18.1233 16.5642 17.8581 16.5629 17.5958 16.5812C17.4649 16.5923 17.3336 16.6012 17.2049 16.6259L17.1079 16.6412L17.0397 16.6531L16.9704 16.6689C16.9348 16.6769 16.9201 16.6842 16.894 16.6923C16.8653 16.6969 16.8829 16.7493 16.9018 16.7603C16.9211 16.7795 16.9443 16.7897 16.9668 16.7999C17.0021 16.8131 17.0099 16.8191 17.1246 16.8514C17.4943 16.9586 17.8845 17.0186 18.2719 17.0807C20.2477 17.3858 22.2524 17.4501 24.2485 17.9653L24.3246 17.9849L24.3664 18.0679C24.3866 18.1074 24.4013 18.1585 24.4072 18.2057C24.4127 18.2602 24.3997 18.3398 24.3758 18.3912C24.3602 18.421 24.3402 18.45 24.3184 18.4738C24.2955 18.4976 24.2906 18.4972 24.2753 18.5095C24.222 18.5461 24.1923 18.5538 24.1603 18.5648C24.0969 18.5857 24.0453 18.5938 23.9914 18.6031C23.8856 18.6197 23.785 18.6278 23.6845 18.6342C23.4836 18.6465 23.2857 18.6504 23.0881 18.6508C22.6933 18.6516 22.3007 18.6414 21.9081 18.6287C20.6726 18.5861 19.4306 18.5436 18.2046 18.5014C16.6308 18.4563 15.0494 18.4776 13.4873 18.3806C13.0017 18.3564 13.0637 18.0509 13.4821 17.7802C13.9001 17.5079 14.6758 17.3067 15.584 17.3824C17.0295 17.5105 18.474 17.6386 19.9218 17.7671C20.6429 17.8266 21.365 17.8862 22.0881 17.9462C22.449 17.9709 22.8098 17.9934 23.1684 18.0045C23.3474 18.0096 23.5264 18.0126 23.7005 18.0075C23.7873 18.0049 23.8732 17.9998 23.9513 17.99C23.9901 17.9858 24.0277 17.9785 24.0509 17.9726L24.06 17.97C24.0626 17.9772 24.0561 17.9543 24.0666 17.9862C24.0734 18.0075 24.0839 18.033 24.0858 18.0457C24.0933 18.0772 24.1038 18.1074 24.1172 18.136C24.1521 18.2006 24.1567 18.2223 24.1809 18.2359C24.1783 18.2385 24.191 18.2406 24.1825 18.2398C24.1714 18.2406 24.1626 18.2483 24.1577 18.2576L24.1489 18.5559C23.8477 18.4572 23.5352 18.3776 23.2204 18.3057C22.2755 18.0921 21.2912 17.9717 20.302 17.8496C19.3114 17.7228 18.314 17.6322 17.3199 17.3999C17.1752 17.362 17.0632 17.3356 16.8904 17.2701C16.698 17.2029 16.4812 17.0841 16.3721 16.9382C16.3228 16.8616 16.2689 16.785 16.2696 16.6718C16.2669 16.6246 16.2712 16.548 16.2901 16.5187L16.3832 16.4442C16.4511 16.3983 16.4929 16.3378 16.5828 16.3038L16.8875 16.2208C17.0018 16.1864 17.0622 16.1808 17.1321 16.1702L17.3411 16.1396C17.4805 16.1306 17.6203 16.1115 17.7591 16.1123C18.0374 16.1017 18.3137 16.1149 18.5887 16.1332C19.6899 16.2106 20.7631 16.451 21.8457 16.451C23.1939 16.4978 24.5336 16.6714 25.8638 16.6808C25.9787 16.6799 26.094 16.6765 26.2047 16.6646C26.2599 16.6595 26.3158 16.6518 26.3628 16.6387C26.388 16.634 26.4072 16.6229 26.4177 16.6191C26.4209 16.625 26.4092 16.6042 26.4255 16.6344C26.4343 16.6493 26.4445 16.6638 26.4546 16.6765C26.4556 16.6829 26.4579 16.6889 26.4614 16.694C26.4601 16.7038 26.499 16.7118 26.4771 16.7063C26.4663 16.705 26.4582 16.7127 26.4549 16.7216L26.5062 16.517C26.5287 16.5161 26.5607 16.5123 26.563 16.511C26.5591 16.4953 26.5715 16.5548 26.5813 16.5825C26.5908 16.6153 26.5852 16.6242 26.5983 16.6408C26.6169 16.6578 26.6022 16.6489 26.6058 16.6557C26.5953 16.6616 26.5784 16.6782 26.5722 16.6965C26.5728 16.7067 26.5428 16.7569 26.5362 16.7735L26.5353 16.7731C26.5353 16.7731 26.5274 16.7689 26.5242 16.7672C26.485 16.7472 26.4294 16.7267 26.3782 16.7089L26.0545 16.6084L25.3955 16.4276L24.0724 16.0779C23.6315 15.9562 23.1913 15.8349 22.752 15.7132L22.0946 15.5145L21.767 15.4069L21.6037 15.3498L21.3879 15.269C21.1824 15.1903 20.9728 15.0984 20.8232 14.9912C20.6697 14.881 20.5783 14.7869 20.5044 14.6354C20.4656 14.5495 20.4741 14.3904 20.5378 14.3312C20.5923 14.2665 20.6517 14.2214 20.7233 14.1849C20.8565 14.1074 21.0534 14.0674 21.2716 14.0478C21.383 14.0389 21.4943 14.0313 21.6031 14.033L21.8827 14.0334L22.3578 14.0483C22.9888 14.0776 23.6149 14.127 24.2416 14.1776C24.5822 14.2031 24.916 14.2278 25.2593 14.2529C26.5304 14.3597 26.9157 14.4121 27.1832 14.6788C27.244 14.7388 27.3259 14.7967 27.3638 14.8576C27.4977 15.0639 26.9477 15.2516 26.0065 15.1703C25.096 15.1014 24.1796 14.9801 23.2547 14.8707C22.7932 14.8176 22.3281 14.7635 21.868 14.735L21.7262 14.7274L21.69 14.7278L21.6782 14.7325C21.674 14.7363 21.6651 14.7384 21.6753 14.7478C21.6818 14.7533 21.6903 14.7537 21.6932 14.7542C21.6952 14.7546 21.6939 14.7537 21.6975 14.755L21.8023 14.795L22.1612 14.9252C22.6436 15.0933 23.1361 15.2439 23.6306 15.3898C24.1564 15.5392 24.6828 15.6894 25.21 15.8392L26.0055 16.0668L26.4082 16.1927C26.4774 16.2166 26.5441 16.2391 26.6247 16.2749C26.643 16.2829 26.6695 16.2966 26.6956 16.3115L26.7276 16.3332L26.7436 16.3451C26.7459 16.3468 26.7547 16.3531 26.7756 16.3753C26.792 16.3931 26.8076 16.4136 26.821 16.4353C26.8325 16.4642 26.8439 16.448 26.8736 16.585C26.8991 16.6982 26.8396 16.8552 26.8204 16.8722C26.8024 16.8999 26.7805 16.9263 26.7557 16.9471C26.6094 17.0407 26.6257 16.9999 26.5872 17.0161L26.5186 17.0212L26.7384 16.5161C26.7671 16.5872 26.7815 16.6884 26.7727 16.7697C26.7626 16.8446 26.7279 16.9267 26.6858 16.9837C26.6496 17.0288 26.6385 17.031 26.6117 17.0539C26.5891 17.071 26.5604 17.0888 26.5506 17.0914C26.4895 17.1199 26.4428 17.1309 26.4007 17.1399C26.3158 17.1569 26.2413 17.1629 26.1672 17.1688C26.0199 17.1777 25.8788 17.1773 25.7374 17.1756C25.4562 17.1697 25.1783 17.1539 24.9013 17.1365L23.2458 17.0105L23.2436 16.9986Z" fill="#231F20"/>
<path fill-rule="evenodd" clip-rule="evenodd" d="M30.9178 22.6556L31.6314 22.0705C31.7176 21.999 31.797 21.9139 31.8838 21.8437C32.1918 21.5974 32.5021 21.3493 32.8091 21.1038C32.9449 20.9923 33.0749 20.8685 33.2023 20.7443C33.3652 20.5839 33.5184 20.4043 33.7095 20.2945C33.8287 20.2252 33.9038 20.7145 33.7163 20.9017C33.3819 21.2297 33.0351 21.5352 32.6614 21.7991C32.4381 21.9565 32.233 22.1705 32.0181 22.3569L31.3045 22.9619L30.8662 23.3355C30.6464 23.527 30.4227 23.7129 30.2117 23.9167C30.0481 24.0759 29.8998 24.2546 29.7447 24.4243C29.7104 24.4618 29.679 24.5022 29.6431 24.5375C29.5105 24.6681 29.4517 24.6775 29.3626 24.5869C29.3423 24.5664 29.3201 24.5477 29.3025 24.5247C29.2434 24.446 29.26 24.3205 29.3446 24.2014C29.5957 23.8491 29.8942 23.544 30.2071 23.2623C30.4383 23.0513 30.6764 22.8504 30.9116 22.6449L30.9178 22.6556Z" fill="#231F20"/>
<path fill-rule="evenodd" clip-rule="evenodd" d="M32.3772 28.4526C32.5627 28.3254 32.7446 28.1829 32.9229 28.0322C32.9882 27.9773 33.0441 27.9063 33.1091 27.851C33.338 27.6535 33.5647 27.4472 33.7858 27.2289C33.8854 27.134 33.9758 27.0242 34.0647 26.9162C34.178 26.7749 34.2828 26.6217 34.4216 26.5149C34.5069 26.4464 34.6048 26.8106 34.4889 26.9983C34.2721 27.3119 34.05 27.6255 33.7652 27.851C33.5986 27.9905 33.4549 28.1816 33.2936 28.3399C33.1176 28.5147 32.9321 28.6756 32.7456 28.833C32.6283 28.9258 32.5127 29.0206 32.3929 29.1083C32.2152 29.2487 32.0241 29.3627 31.839 29.4832C31.694 29.5746 31.5604 29.6955 31.4095 29.778C31.3752 29.7929 31.3442 29.8155 31.3082 29.824C31.175 29.8589 31.1254 29.8338 31.0767 29.7257C31.0656 29.701 31.0525 29.6772 31.0444 29.6525C31.0169 29.5695 31.0522 29.4738 31.1263 29.3968C31.1822 29.3432 31.2364 29.2836 31.2906 29.2249C31.3504 29.1789 31.4079 29.1347 31.465 29.0908C31.5849 29.0023 31.7028 28.9155 31.8216 28.8283C32.0003 28.6968 32.1913 28.5854 32.3706 28.4407L32.3772 28.4526Z" fill="#231F20"/>
<path fill-rule="evenodd" clip-rule="evenodd" d="M14.7257 31.5472L11.7414 31.4765L10.6522 31.4693C9.37229 31.431 8.09271 31.3889 6.81247 31.3161C6.24388 31.2906 5.673 31.2651 5.10898 31.2404C4.38395 31.1961 3.65304 31.1898 2.92997 30.9881C2.70495 30.9315 2.75394 30.8209 2.9561 30.7366C3.15957 30.6528 3.50608 30.5992 3.91987 30.6226C5.38005 30.7341 6.85624 30.7515 8.34222 30.8409C9.23153 30.9 10.1587 30.8749 11.0696 30.8872L14.0762 30.9315L15.9273 30.9608C16.862 30.9791 17.8009 30.9974 18.7281 31.0153C19.4499 31.0272 20.1576 31.0013 20.8732 31.0191C21.0306 31.0208 21.1854 31.023 21.3438 31.0247C21.9336 31.0625 22.1194 31.123 22.2354 31.2953C22.2615 31.3344 22.2971 31.3744 22.3111 31.4127C22.3591 31.5425 22.1145 31.6255 21.688 31.6259C20.4202 31.6386 19.0815 31.6276 17.7353 31.6093C16.7349 31.5935 15.73 31.5782 14.7267 31.5625L14.7257 31.5472Z" fill="#231F20"/>
<path fill-rule="evenodd" clip-rule="evenodd" d="M32.5861 25.3801L31.1919 26.614L30.6899 27.0757C30.0871 27.5939 29.4832 28.113 28.8806 28.6304C28.6125 28.8598 28.3489 29.1006 28.0896 29.3406C27.7559 29.6478 27.4286 29.9724 27.0651 30.2226C26.8401 30.3805 26.9237 29.7805 27.3048 29.4291C27.9838 28.8053 28.6657 28.1862 29.3813 27.6105C29.8091 27.2667 30.2239 26.8515 30.6452 26.4685L32.0365 25.2074L32.8895 24.4253C33.3174 24.0258 33.7507 23.6301 34.1655 23.2165C34.4869 22.8923 34.7883 22.5515 35.0969 22.2187C35.1645 22.1451 35.2276 22.0685 35.2988 21.9992C35.5555 21.7303 35.6714 21.7179 35.7759 21.7405C35.8027 21.746 35.8337 21.7447 35.8566 21.7515C35.9395 21.7592 35.8621 21.9856 35.7057 22.2323C35.1966 22.9216 34.5943 23.5199 33.9784 24.1058C33.5225 24.5415 33.0558 24.9644 32.593 25.3908L32.5861 25.3801Z" fill="#231F20"/>
<path fill-rule="evenodd" clip-rule="evenodd" d="M11.3015 39.2559C12.4178 39.238 13.5357 39.2052 14.6536 39.1652L15.8764 39.1014C17.3144 39.0521 18.7543 39.0227 20.1946 39.0001C20.8344 38.984 21.4771 38.9674 22.112 38.9512L22.7247 38.9316L23.3393 38.9516C23.7482 38.9619 24.1607 39.015 24.567 39.095C24.8191 39.1695 24.777 39.2529 24.5549 39.3797C24.3308 39.5103 23.9409 39.6167 23.4752 39.6503C22.6531 39.7009 21.8272 39.6814 20.998 39.7018C20.1688 39.7124 19.3363 39.7252 18.4989 39.7184C17.4973 39.7141 16.4564 39.7988 15.4319 39.8418L12.0494 39.9541L9.9661 39.9928C8.91383 40.0086 7.85665 39.9954 6.81091 39.9822C5.9977 39.9741 5.19854 39.9852 4.38762 39.9218C4.20864 39.906 4.03294 39.8903 3.85299 39.8741C3.52019 39.8409 3.30007 39.7354 3.15213 39.6694C3.00418 39.5924 2.92678 39.5082 2.87485 39.3941C2.85134 39.3422 2.8177 39.2882 2.80823 39.2401C2.77622 39.0793 3.06133 39.021 3.52477 39.0823C4.918 39.2201 6.41835 39.2686 7.92524 39.2856C9.04479 39.292 10.1735 39.272 11.2996 39.238L11.3015 39.2559Z" fill="#231F20"/>
<path fill-rule="evenodd" clip-rule="evenodd" d="M19.895 2.67603C19.8542 2.6288 19.8898 2.55817 19.9708 2.4752C19.9966 2.44882 20.0867 2.41266 20.1037 2.42329C20.137 2.44414 20.1693 2.46499 20.1948 2.48924C20.2095 2.50499 20.3408 2.79092 20.3934 2.8824C20.442 2.97217 20.4786 3.06834 20.5119 3.1662C20.5815 3.36448 20.6576 3.55893 20.735 3.75295C20.752 3.79635 20.764 3.8423 20.7729 3.89081C20.8006 4.05845 20.861 4.20652 20.9267 4.35161C20.9378 4.37544 20.9453 4.40267 20.9698 4.41671C21.0087 4.44012 21.1726 4.8422 21.1834 4.9022C21.2128 5.04899 21.2258 5.20855 21.2556 5.35662C21.2592 5.37832 21.2709 5.39534 21.2621 5.42385C21.2418 5.49022 21.2628 5.52724 21.2752 5.57107C21.2925 5.63149 21.3085 5.69276 21.3199 5.75786C21.3255 5.78977 21.3193 5.83019 21.3173 5.86721C21.3157 5.90125 21.2683 5.91869 21.2595 5.91359C21.2353 5.89869 21.2239 5.93401 21.2076 5.94933C21.2017 5.95443 21.1945 5.96124 21.1889 5.96379C21.1811 5.96635 20.9401 5.72169 20.9185 5.69063C20.9162 5.68723 20.847 5.5817 20.7729 5.46852C20.6938 5.3613 20.6341 5.23153 20.6174 5.20855C20.6014 5.18302 20.5991 5.14813 20.5929 5.11537C20.5828 5.0958 20.3992 4.73753 20.3924 4.72392C20.364 4.6418 20.3169 4.57074 20.3241 4.46522C20.3254 4.44437 20.3173 4.42905 20.3107 4.41331C20.2533 4.27673 20.2173 4.1261 20.1778 3.97846C20.1569 3.90315 20.1282 3.83252 20.104 3.75933C20.0998 3.74614 20.1007 3.72955 20.0988 3.71508C20.0962 3.69678 20.0962 3.67721 20.0903 3.66062C20.0302 3.48872 19.9956 3.30321 19.929 3.13429C19.9126 3.09557 19.9012 2.87942 19.8829 2.83474C19.8725 2.80964 19.911 2.69476 19.895 2.67603Z" fill="#231F20"/>
<path fill-rule="evenodd" clip-rule="evenodd" d="M29.7099 6.26631C29.6769 6.3429 29.6044 6.32333 29.5074 6.24801C29.4767 6.22376 29.4206 6.11569 29.4265 6.0876C29.4379 6.03229 29.4503 5.97783 29.4673 5.93145C29.4781 5.90337 29.7214 5.59574 29.802 5.48639C29.8798 5.38044 29.9679 5.29236 30.0574 5.20727L30.6058 4.68774C30.6466 4.64987 30.6904 4.61754 30.7374 4.59116C30.8984 4.50053 31.0424 4.37714 31.1815 4.24311C31.2051 4.22098 31.2312 4.20226 31.2456 4.16482C31.2678 4.09972 31.6734 3.78528 31.7335 3.76103C31.8798 3.69465 32.0343 3.64699 32.1809 3.5853C32.2021 3.57721 32.2204 3.55849 32.2469 3.56743C32.3076 3.58743 32.3462 3.55381 32.3899 3.53126C32.45 3.49935 32.5124 3.47212 32.5764 3.45042C32.6081 3.43978 32.6453 3.44489 32.6803 3.44446C32.7119 3.44446 32.7198 3.50914 32.7136 3.52148C32.695 3.55679 32.7263 3.56998 32.7377 3.59168C32.7417 3.59891 32.7466 3.6087 32.7479 3.61593C32.7492 3.62402 32.6803 3.71209 32.6097 3.8057C32.5392 3.89974 32.4677 4.00185 32.451 4.01547C32.4474 4.0193 32.3413 4.12822 32.2286 4.24396C32.1218 4.36905 31.9993 4.47372 31.9774 4.50223C31.9533 4.52904 31.9209 4.53882 31.8909 4.55329C31.8752 4.55712 31.5441 4.90517 31.5287 4.91453C31.4513 4.96899 31.3873 5.05154 31.291 5.06728C31.272 5.07026 31.2583 5.08558 31.2439 5.09877C31.1211 5.2145 30.9859 5.30555 30.854 5.40469C30.7867 5.4549 30.726 5.51872 30.6616 5.57489C30.6499 5.5851 30.6348 5.58851 30.6218 5.59574C30.6051 5.6051 30.5875 5.61191 30.5731 5.62552C30.4242 5.76636 30.2599 5.87911 30.1195 6.03655C30.0871 6.07229 29.8935 6.17313 29.8572 6.21738C29.8366 6.24121 29.7233 6.23568 29.7099 6.26631Z" fill="#231F20"/>
<path fill-rule="evenodd" clip-rule="evenodd" d="M26.2149 3.04707C26.2165 3.11643 26.1492 3.11558 26.0402 3.0726C26.0052 3.05899 25.9174 2.98112 25.9115 2.9573C25.9004 2.90964 25.8903 2.86284 25.887 2.82156C25.885 2.79646 25.9732 2.49734 25.9997 2.3931C26.0251 2.29183 26.065 2.2029 26.1074 2.11568L26.3612 1.58169C26.3805 1.54254 26.404 1.5068 26.4314 1.47489C26.5258 1.36511 26.5937 1.23278 26.6522 1.09195C26.662 1.06855 26.676 1.0477 26.6724 1.01408C26.6666 0.958344 26.8462 0.59455 26.8805 0.556681C26.9621 0.460521 27.049 0.368189 27.1355 0.276284C27.1476 0.263093 27.1529 0.241819 27.1767 0.240968C27.2322 0.238415 27.2456 0.198844 27.2685 0.166507C27.2992 0.121831 27.3322 0.0784308 27.37 0.0397112C27.3887 0.0205642 27.42 0.0129054 27.4471 0.00141715C27.4716 -0.0092201 27.5118 0.0431152 27.5134 0.0554544C27.5167 0.09077 27.5484 0.091621 27.5686 0.106513C27.5755 0.111619 27.5843 0.118001 27.5892 0.123533C27.597 0.133744 27.5562 0.509878 27.5454 0.545193C27.5441 0.549023 27.5072 0.668585 27.4674 0.796232C27.4282 0.922177 27.3743 1.04259 27.3678 1.0711C27.3596 1.09961 27.3377 1.11663 27.3197 1.13662C27.3113 1.14641 27.177 1.5102 27.1695 1.52297C27.1306 1.58849 27.1107 1.67146 27.0415 1.71061C27.0281 1.71827 27.0229 1.73401 27.0167 1.74848C26.9631 1.87315 26.8903 1.98122 26.822 2.09313C26.7874 2.15057 26.7619 2.21567 26.7312 2.27651C26.7257 2.28757 26.7149 2.29396 26.7071 2.30332C26.6973 2.31438 26.6855 2.32417 26.679 2.33863C26.6114 2.4867 26.5203 2.61478 26.4644 2.77348C26.4513 2.80965 26.3308 2.93304 26.3174 2.97644C26.3099 3.0007 26.2142 3.01942 26.2149 3.04707Z" fill="#231F20"/>
</svg>
